<?xml version="1.0" encoding="UTF-8"?>
<!DOCTYPE svg PUBLIC "-//W3C//DTD SVG 1.1//EN" "http://www.w3.org/Graphics/SVG/1.1/DTD/svg11.dtd">
<svg xmlns="http://www.w3.org/2000/svg" version="1.1" width="280px" height="280px" style="shape-rendering:geometricPrecision; text-rendering:geometricPrecision; image-rendering:optimizeQuality; fill-rule:evenodd; clip-rule:evenodd" xmlns:xlink="http://www.w3.org/1999/xlink">
<g><path style="opacity:1" fill="#000000" d="M -0.5,-0.5 C 92.8333,-0.5 186.167,-0.5 279.5,-0.5C 279.5,92.8333 279.5,186.167 279.5,279.5C 186.167,279.5 92.8333,279.5 -0.5,279.5C -0.5,186.167 -0.5,92.8333 -0.5,-0.5 Z"/></g>
<g><path style="opacity:1" fill="#8a2a18" d="M 17.5,104.5 C 37.9933,103.503 58.6599,103.169 79.5,103.5C 79.8229,109.69 79.4896,115.69 78.5,121.5C 78.5,115.833 78.5,110.167 78.5,104.5C 58.1667,104.5 37.8333,104.5 17.5,104.5 Z"/></g>
<g><path style="opacity:1" fill="#af2d1a" d="M 233.5,104.5 C 228.305,104.179 223.305,104.513 218.5,105.5C 217.957,105.44 217.624,105.107 217.5,104.5C 222.986,103.185 228.32,103.185 233.5,104.5 Z"/></g>
<g><path style="opacity:1" fill="#ac2d1a" d="M 244.5,104.5 C 249.68,103.185 255.014,103.185 260.5,104.5C 260.376,105.107 260.043,105.44 259.5,105.5C 254.695,104.513 249.695,104.179 244.5,104.5 Z"/></g>
<g><path style="opacity:1" fill="#ee2706" d="M 17.5,104.5 C 37.8333,104.5 58.1667,104.5 78.5,104.5C 78.5,110.167 78.5,115.833 78.5,121.5C 72.1667,121.5 65.8333,121.5 59.5,121.5C 59.5,139.167 59.5,156.833 59.5,174.5C 52.1667,174.5 44.8333,174.5 37.5,174.5C 37.5,156.833 37.5,139.167 37.5,121.5C 30.8333,121.5 24.1667,121.5 17.5,121.5C 17.5,115.833 17.5,110.167 17.5,104.5 Z"/></g>
<g><path style="opacity:1" fill="#ec2806" d="M 104.5,156.5 C 116.655,157.495 128.989,157.829 141.5,157.5C 141.5,163.167 141.5,168.833 141.5,174.5C 121.833,174.5 102.167,174.5 82.5,174.5C 82.5,150.833 82.5,127.167 82.5,103.5C 102.5,103.5 122.5,103.5 142.5,103.5C 142.5,109.5 142.5,115.5 142.5,121.5C 129.833,121.5 117.167,121.5 104.5,121.5C 104.5,124.5 104.5,127.5 104.5,130.5C 117.167,130.5 129.833,130.5 142.5,130.5C 142.5,136.167 142.5,141.833 142.5,147.5C 129.833,147.5 117.167,147.5 104.5,147.5C 104.5,150.5 104.5,153.5 104.5,156.5 Z"/></g>
<g><path style="opacity:1" fill="#ee2705" d="M 186.5,104.5 C 200.696,105.855 209.529,113.522 213,127.5C 213.667,134.5 213.667,141.5 213,148.5C 210.658,162.511 202.491,171.011 188.5,174C 174.504,174.5 160.504,174.667 146.5,174.5C 146.5,151.167 146.5,127.833 146.5,104.5C 159.833,104.5 173.167,104.5 186.5,104.5 Z"/></g>
<g><path style="opacity:1" fill="#eb2706" d="M 233.5,104.5 C 234.82,107.806 236.653,110.806 239,113.5C 240.844,110.472 242.678,107.472 244.5,104.5C 249.695,104.179 254.695,104.513 259.5,105.5C 255.177,112.138 250.844,118.805 246.5,125.5C 251.377,132.754 256.377,139.921 261.5,147C 256.167,147.667 250.833,147.667 245.5,147C 243.208,143.584 241.041,140.084 239,136.5C 236.959,140.084 234.792,143.584 232.5,147C 227.167,147.667 221.833,147.667 216.5,147C 221.747,139.84 226.747,132.507 231.5,125C 226.945,118.618 222.611,112.118 218.5,105.5C 223.305,104.513 228.305,104.179 233.5,104.5 Z"/></g>
<g><path style="opacity:1" fill="#5f1c11" d="M 186.5,104.5 C 173.167,104.5 159.833,104.5 146.5,104.5C 146.5,127.833 146.5,151.167 146.5,174.5C 145.502,151.006 145.169,127.339 145.5,103.5C 159.344,103.171 173.01,103.504 186.5,104.5 Z"/></g>
<g><path style="opacity:1" fill="#6d1e12" d="M 178.5,122.5 C 175.167,122.5 171.833,122.5 168.5,122.5C 168.5,133.833 168.5,145.167 168.5,156.5C 167.505,145.012 167.172,133.345 167.5,121.5C 171.371,121.185 175.038,121.518 178.5,122.5 Z"/></g>
<g><path style="opacity:1" fill="#030100" d="M 178.5,122.5 C 187.716,123.723 192.383,129.056 192.5,138.5C 191.624,153.631 183.624,159.631 168.5,156.5C 168.5,145.167 168.5,133.833 168.5,122.5C 171.833,122.5 175.167,122.5 178.5,122.5 Z"/></g>
<g><path style="opacity:1" fill="#5e2318" d="M 17.5,121.5 C 24.1667,121.5 30.8333,121.5 37.5,121.5C 37.5,139.167 37.5,156.833 37.5,174.5C 36.5033,157.341 36.17,140.008 36.5,122.5C 29.9779,122.823 23.6446,122.49 17.5,121.5 Z"/></g>
<g><path style="opacity:1" fill="#c42d16" d="M 104.5,156.5 C 117.167,156.5 129.833,156.5 142.5,156.5C 142.823,162.69 142.49,168.69 141.5,174.5C 141.5,168.833 141.5,163.167 141.5,157.5C 128.989,157.829 116.655,157.495 104.5,156.5 Z"/></g>
</svg>
