<?xml version="1.0" standalone="no"?><svg xmlns="http://www.w3.org/2000/svg" viewBox="0 0 1440 200"><path fill="#EB0028" fill-opacity="1" d="M0,128L40,160C80,192,160,256,240,240C320,224,400,128,480,117.3C560,107,640,181,720,224C800,267,880,277,960,261.3C1040,245,1120,203,1200,186.7C1280,171,1360,181,1400,186.7L1440,192L1440,320L1400,320C1360,320,1280,320,1200,320C1120,320,1040,320,960,320C880,320,800,320,720,320C640,320,560,320,480,320C400,320,320,320,240,320C160,320,80,320,40,320L0,320Z"></path></svg>